<?xml version="1.0" encoding="UTF-8"?>
<svg width="32px" height="32px" viewBox="0 0 32 32" version="1.1" xmlns="http://www.w3.org/2000/svg" xmlns:xlink="http://www.w3.org/1999/xlink">
    <title>形状结合</title>
    <g id="数据源（文件、接口、数据库）" stroke="none" stroke-width="1" fill="none" fill-rule="evenodd">
        <g id="数据库-列" transform="translate(-16.000000, -14.000000)" fill="#EC4D1C" fill-rule="nonzero">
            <g id="形状结合" transform="translate(16.000000, 14.000000)">
                <path d="M12,0 C9.14387213,1.62189053 6.78863227,3.91044773 5.17939613,6.64676613 L5.17939613,6.64676613 L0,6.66666667 L0,0 L12,0 Z M18.6666667,0 L18.6666667,6.6368604 L8,6.66666667 C9.97190293,3.90462 12.5670499,1.61947347 15.5913155,0 L15.5913155,0 L18.6666667,0 Z M21.3333333,9.33333333 C23.5684647,10.5366476 25.604426,12.0356915 27.3637621,13.7998725 C29.6542185,16.0943276 31.1922545,18.3785851 32,20 L32,20 L21.3886584,19.9592097 L21.3333333,9.33333333 Z M32,0 L32,16 C29.5435684,12.0712468 25.8146612,8.9363868 21.3333333,7.03307893 C21.3554633,4.692112 21.3775933,2.34096693 21.4107884,0 L21.4107884,0 L32,0 Z M4.3215112,9.33333333 C2.7630696,12.5220421 1.72884107,18.3228405 1.59798187,19.6593373 C1.4671228,20.9958341 1.09356813,26.658636 3.66427813,32 L3.66427813,32 L0,32 L0,9.35424293 L4.3215112,9.33333333 Z M4,22.6666667 L18.6666667,22.7402733 L18.6666667,32 L5.98861147,32 C4.85910253,30.1505044 4.38877547,28.5251028 4.13491027,26.4942167 C3.96566667,25.1402925 3.92069667,23.8644425 4,22.6666667 L4,22.6666667 Z M7.03788387,9.33333333 L18.6568035,9.4039068 L18.6568035,9.4039068 L18.6666667,20 L4,19.9596724 C4.21699173,17.126654 4.8679668,14.3541273 5.9233356,11.7328292 C6.2586864,10.9161941 6.62362693,10.1096408 7.03788387,9.33333333 L7.03788387,9.33333333 Z M21.3333333,22.6666667 L32,22.6666667 L32,32 L21.3333333,32 L21.3333333,22.6666667 Z"></path>
            </g>
        </g>
    </g>
</svg>